# xmcd
#
# Track frame offsets:
#	151
#	8384
#	24169
#	39034
#	54919
#	69502
#	84465
#	99692
#	111831
#	124232
#	147465
#	161438
#	173357
#	183986
#	199261
#	212950
#	223981
#	246672
#	258637
#
# Disc length: 3630 seconds
#
# Revision: 0
# Processed by: cddbd v1.5.1PL0 Copyright (c) Steve Scherf et al.
# Submitted via: dBpowerAMP V4.0
#
DISCID=0a0e2c13
DTITLE=Dave Harris - Playing to the Wall
DYEAR=1900
DGENRE=Blues
TTITLE0=Slim's Zydeco Train
TTITLE1=Playing to the Wall
TTITLE2=Hard Hearted Papa
TTITLE3=Love that Boogie
TTITLE4=Move on Down the Line - Earl Hooker
TTITLE5=What'd I Say - Ray Charles
TTITLE6=Please Send Me Someone to Love - Percy Mayfield
TTITLE7=Chicken Shack (Gumbo) - Jimmy Smith
TTITLE8=Slim's Train Song (Part 2)
TTITLE9=Cajon Viola G/I'm Wild About My Lovin'
TTITLE10=Blues for Leroy
TTITLE11=Fiddle Dee Dee
TTITLE12=Old Broom Duster Blues
TTITLE13=Telling Your Lies
TTITLE14=Hug and Squeeze You - Joh Lee Hooker
TTITLE15=I Don't Care - Dennis Roberts
TTITLE16=Cajun Viola C/She's About a Mover
TTITLE17=Happy New Year Blues
TTITLE18=Going Down Slow - "St. Louis" Jimmy Oden
EXTD=
EXTT0=
EXTT1=
EXTT2=
EXTT3=
EXTT4=
EXTT5=
EXTT6=
EXTT7=
EXTT8=
EXTT9=
EXTT10=
EXTT11=
EXTT12=
EXTT13=
EXTT14=
EXTT15=
EXTT16=
EXTT17=
EXTT18=
PLAYORDER=
